<svg width="1200" height="820" viewBox="0 0 1200 820" fill="none" xmlns="http://www.w3.org/2000/svg">
  <rect width="1200" height="820" fill="#FBFAF5"/>
  <rect x="58" y="54" width="1084" height="712" rx="18" fill="#FFFFFF" stroke="#D8DED4" stroke-width="2"/>
  <text x="92" y="115" fill="#171717" font-family="Inter, Arial, sans-serif" font-size="34" font-weight="800">Base Protocol workflow map</text>
  <text x="92" y="152" fill="#60645F" font-family="Inter, Arial, sans-serif" font-size="18">Local files, explicit lanes, durable observer records</text>

  <g transform="translate(92 206)">
    <rect width="156" height="86" rx="12" fill="#EEF4EC" stroke="#AFC8B7"/>
    <text x="22" y="38" fill="#2F6D55" font-family="Inter, Arial, sans-serif" font-size="17" font-weight="800">Planning</text>
    <text x="22" y="62" fill="#59625B" font-family="Inter, Arial, sans-serif" font-size="13">shape intent</text>
  </g>
  <g transform="translate(276 206)">
    <rect width="156" height="86" rx="12" fill="#EDF3F8" stroke="#B7CCDA"/>
    <text x="22" y="38" fill="#2D5F88" font-family="Inter, Arial, sans-serif" font-size="17" font-weight="800">Architect</text>
    <text x="22" y="62" fill="#59625B" font-family="Inter, Arial, sans-serif" font-size="13">record tradeoffs</text>
  </g>
  <g transform="translate(460 206)">
    <rect width="156" height="86" rx="12" fill="#F7F0E8" stroke="#D8BFA4"/>
    <text x="22" y="38" fill="#A64F32" font-family="Inter, Arial, sans-serif" font-size="17" font-weight="800">Engineering</text>
    <text x="22" y="62" fill="#59625B" font-family="Inter, Arial, sans-serif" font-size="13">make change</text>
  </g>
  <g transform="translate(644 206)">
    <rect width="156" height="86" rx="12" fill="#F7F6E8" stroke="#D8CE9D"/>
    <text x="22" y="38" fill="#8A6E1E" font-family="Inter, Arial, sans-serif" font-size="17" font-weight="800">QA</text>
    <text x="22" y="62" fill="#59625B" font-family="Inter, Arial, sans-serif" font-size="13">check evidence</text>
  </g>
  <g transform="translate(828 206)">
    <rect width="156" height="86" rx="12" fill="#F2F0F7" stroke="#C8C0DA"/>
    <text x="22" y="38" fill="#62538E" font-family="Inter, Arial, sans-serif" font-size="17" font-weight="800">PM</text>
    <text x="22" y="62" fill="#59625B" font-family="Inter, Arial, sans-serif" font-size="13">decide movement</text>
  </g>

  <path d="M252 249H274" stroke="#81877F" stroke-width="3" stroke-linecap="round"/>
  <path d="M436 249H458" stroke="#81877F" stroke-width="3" stroke-linecap="round"/>
  <path d="M620 249H642" stroke="#81877F" stroke-width="3" stroke-linecap="round"/>
  <path d="M804 249H826" stroke="#81877F" stroke-width="3" stroke-linecap="round"/>

  <g transform="translate(92 374)">
    <text x="0" y="0" fill="#171717" font-family="Inter, Arial, sans-serif" font-size="22" font-weight="800">Backlog lanes</text>
    <rect y="28" width="1016" height="86" rx="12" fill="#F8F7F1" stroke="#D8DED4"/>
    <rect x="24" y="52" width="128" height="38" rx="8" fill="#FFFFFF" stroke="#D8DED4"/>
    <text x="49" y="77" fill="#59625B" font-family="Inter, Arial, sans-serif" font-size="14" font-weight="700">intake</text>
    <rect x="176" y="52" width="128" height="38" rx="8" fill="#FFFFFF" stroke="#D8DED4"/>
    <text x="211" y="77" fill="#59625B" font-family="Inter, Arial, sans-serif" font-size="14" font-weight="700">ready</text>
    <rect x="328" y="52" width="128" height="38" rx="8" fill="#FFFFFF" stroke="#D8DED4"/>
    <text x="359" y="77" fill="#59625B" font-family="Inter, Arial, sans-serif" font-size="14" font-weight="700">active</text>
    <rect x="480" y="52" width="128" height="38" rx="8" fill="#FFFFFF" stroke="#D8DED4"/>
    <text x="531" y="77" fill="#59625B" font-family="Inter, Arial, sans-serif" font-size="14" font-weight="700">qa</text>
    <rect x="632" y="52" width="128" height="38" rx="8" fill="#FFFFFF" stroke="#D8DED4"/>
    <text x="670" y="77" fill="#59625B" font-family="Inter, Arial, sans-serif" font-size="14" font-weight="700">done</text>
    <rect x="784" y="52" width="128" height="38" rx="8" fill="#FFFFFF" stroke="#D8DED4"/>
    <text x="825" y="77" fill="#59625B" font-family="Inter, Arial, sans-serif" font-size="14" font-weight="700">archive</text>
  </g>

  <g transform="translate(92 554)">
    <rect width="300" height="122" rx="12" fill="#171717"/>
    <text x="24" y="38" fill="#F8F7F1" font-family="Inter, Arial, sans-serif" font-size="18" font-weight="800">Stage contracts</text>
    <text x="24" y="68" fill="#DDE0D7" font-family="Inter, Arial, sans-serif" font-size="14">prompts, gates, forbidden actions</text>
    <text x="24" y="94" fill="#DDE0D7" font-family="Inter, Arial, sans-serif" font-size="14">and artifact expectations</text>
  </g>
  <g transform="translate(450 554)">
    <rect width="300" height="122" rx="12" fill="#2F6D55"/>
    <text x="24" y="38" fill="#FFFFFF" font-family="Inter, Arial, sans-serif" font-size="18" font-weight="800">Reviewable artifacts</text>
    <text x="24" y="68" fill="#E5F1EA" font-family="Inter, Arial, sans-serif" font-size="14">markdown plans, handoffs, approvals</text>
    <text x="24" y="94" fill="#E5F1EA" font-family="Inter, Arial, sans-serif" font-size="14">and release records</text>
  </g>
  <g transform="translate(808 554)">
    <rect width="300" height="122" rx="12" fill="#2D5F88"/>
    <text x="24" y="38" fill="#FFFFFF" font-family="Inter, Arial, sans-serif" font-size="18" font-weight="800">Observer memory</text>
    <text x="24" y="68" fill="#E5EEF5" font-family="Inter, Arial, sans-serif" font-size="14">cycle reports, JSON traces</text>
    <text x="24" y="94" fill="#E5EEF5" font-family="Inter, Arial, sans-serif" font-size="14">and lessons for the next run</text>
  </g>
</svg>
